<?xml version="1.0" encoding="utf-8"?>
<!-- Generator: Adobe Illustrator 21.1.0, SVG Export Plug-In . SVG Version: 6.00 Build 0)  -->
<svg version="1.1" id="Layer_1" xmlns="http://www.w3.org/2000/svg" xmlns:xlink="http://www.w3.org/1999/xlink" x="0px" y="0px"
	 viewBox="0 0 1024 768" style="enable-background:new 0 0 1024 768;" xml:space="preserve">
<style type="text/css">
	.st0{fill:#FFFFFF;stroke:#000000;stroke-miterlimit:10;}
	.st1{fill:#E6E6E6;stroke:url(#SVGID_1_);stroke-miterlimit:10;}
	.st2{opacity:0.5;fill:#006837;stroke:url(#SVGID_2_);stroke-miterlimit:10;}
	.st3{opacity:0.5;fill:#F15A24;stroke:url(#SVGID_3_);stroke-miterlimit:10;}
	.st4{fill:#E6E6E6;stroke:url(#SVGID_4_);stroke-miterlimit:10;}
	.st5{fill:#E6E6E6;stroke:url(#SVGID_5_);stroke-miterlimit:10;}
	.st6{fill:#00FF00;stroke:#000000;stroke-miterlimit:10;}
	.st7{opacity:0.5;fill:#FF0000;stroke:#000000;stroke-miterlimit:10;}
	.st8{fill:#FF0000;stroke:#000000;stroke-miterlimit:10;}
	.st9{font-family:'MyriadPro-Regular';}
	.st10{font-size:12px;}
	.st11{font-size:11.7337px;}
	.st12{fill:#FF0000;stroke:#FF0000;stroke-width:2;stroke-miterlimit:10;}
	.st13{fill:none;stroke:#FF0000;stroke-width:2;stroke-miterlimit:10;}
	.st14{fill:#B3B3B3;stroke:#000000;stroke-miterlimit:10;}
	.st15{fill:#4D4D4D;stroke:#000000;stroke-miterlimit:10;}
	.st16{fill:url(#SVGID_6_);stroke:#000000;stroke-miterlimit:10;}
	.st17{fill:#F7931E;}
	.st18{fill:url(#SVGID_7_);stroke:#000000;stroke-miterlimit:10;}
	.st19{fill:#F7931E;stroke:#F7931E;stroke-miterlimit:10;}
	.st20{fill:#F7931E;stroke:#F7931E;stroke-width:2;stroke-miterlimit:10;}
	.st21{fill:none;stroke:#000000;stroke-width:4;stroke-miterlimit:10;}
	.st22{fill:none;stroke:#808080;stroke-width:17;stroke-miterlimit:10;}
	.st23{fill:#CCCCCC;stroke:url(#SVGID_8_);stroke-miterlimit:10;}
	.st24{fill:#B3B3B3;stroke:#000000;stroke-width:2;stroke-miterlimit:10;}
</style>
<g>
	<polygon class="st0" points="132.6,422.6 119.6,422.6 103.9,411.8 147.7,411.8 	"/>
	<rect x="102" y="376.5" class="st0" width="47" height="35.5"/>
	<rect x="102" y="311.5" class="st0" width="47" height="78.5"/>
</g>
<linearGradient id="SVGID_1_" gradientUnits="userSpaceOnUse" x1="122.0812" y1="242.6072" x2="135.0812" y2="242.6072" gradientTransform="matrix(0.693 0.7209 -0.7209 0.693 208.789 -7.3286)">
	<stop  offset="0" style="stop-color:#FFFFFF"/>
	<stop  offset="1" style="stop-color:#000000"/>
</linearGradient>
<rect x="117" y="199" transform="matrix(0.693 0.7209 -0.7209 0.693 220.5096 -10.8542)" class="st1" width="12" height="109"/>
<linearGradient id="SVGID_2_" gradientUnits="userSpaceOnUse" x1="222.9045" y1="155.0419" x2="235.9045" y2="155.0419" gradientTransform="matrix(0.693 0.7209 -0.7209 0.693 208.789 -7.3286)">
	<stop  offset="0" style="stop-color:#FFFFFF"/>
	<stop  offset="1" style="stop-color:#000000"/>
</linearGradient>
<rect x="250" y="211" transform="matrix(0.693 0.7209 -0.7209 0.693 269.9883 -103.052)" class="st2" width="12" height="109"/>
<linearGradient id="SVGID_3_" gradientUnits="userSpaceOnUse" x1="573.2067" y1="-168.4365" x2="586.2067" y2="-168.4365" gradientTransform="matrix(0.6876 -0.7261 0.7261 0.6876 426.6661 800.2219)">
	<stop  offset="0" style="stop-color:#FFFFFF"/>
	<stop  offset="1" style="stop-color:#000000"/>
</linearGradient>
<rect x="697" y="209" transform="matrix(0.6876 -0.7261 0.7261 0.6876 28.2759 592.7241)" class="st3" width="12" height="109"/>
<g>
	
		<linearGradient id="SVGID_4_" gradientUnits="userSpaceOnUse" x1="64.9359" y1="-22.4469" x2="77.9359" y2="-22.4469" gradientTransform="matrix(0.3295 0.3427 -0.3291 0.3164 216.9036 59.9148)">
		<stop  offset="0" style="stop-color:#FFFFFF"/>
		<stop  offset="1" style="stop-color:#000000"/>
	</linearGradient>
	
		<rect x="245" y="52.4" transform="matrix(0.693 0.7209 -0.7209 0.693 131.8013 -154.9338)" class="st4" width="5.7" height="49.8"/>
	
		<linearGradient id="SVGID_5_" gradientUnits="userSpaceOnUse" x1="83.8441" y1="-9.1418" x2="96.8441" y2="-9.1418" gradientTransform="matrix(0.2438 0.4082 -0.3919 0.2341 222.2199 42.5626)">
		<stop  offset="0" style="stop-color:#FFFFFF"/>
		<stop  offset="1" style="stop-color:#000000"/>
	</linearGradient>
	
		<rect x="245" y="52.4" transform="matrix(0.5128 0.8585 -0.8585 0.5128 187.1085 -175.104)" class="st5" width="5.7" height="49.8"/>
</g>
<rect x="643.5" y="323.5" class="st6" width="105" height="9"/>
<rect x="503.5" y="272.5" transform="matrix(4.490281e-11 -1 1 4.490281e-11 279 833)" class="st7" width="105" height="9"/>
<rect x="715.5" y="260.5" transform="matrix(4.490281e-11 -1 1 4.490281e-11 503 1033)" class="st8" width="105" height="9"/>
<rect x="632.5" y="43.5" class="st8" width="193" height="74"/>
<text transform="matrix(1 0 0 1 670.5088 84.8911)" class="st9 st10">Laser</text>
<text transform="matrix(1.0227 0 0 1 50.2983 360.3057)" class="st9 st11">Objective</text>
<line class="st12" x1="643.5" y1="81.5" x2="250" y2="80"/>
<line class="st12" x1="250" y1="260" x2="249" y2="82"/>
<line class="st13" x1="250.5" y1="260.5" x2="127.5" y2="260.5"/>
<line class="st13" x1="126.5" y1="309.5" x2="127.5" y2="260.5"/>
<rect x="476.5" y="62.5" class="st14" width="133" height="35"/>
<rect x="802.5" y="239.5" class="st15" width="131" height="46"/>
<rect x="630" y="383" transform="matrix(4.489215e-11 -1 1 4.489215e-11 289.5 1101.5)" class="st15" width="131" height="46"/>
<text transform="matrix(1 0 0 1 498.5088 81.8599)" class="st9 st10">Mag. Telescope</text>
<text transform="matrix(1.0227 0 0 1 254.2983 290.3057)" class="st9 st11">LaserDichroic</text>
<text transform="matrix(1.0227 0 0 1 644.2983 218.3057)" class="st9 st11">EmissionDichroic</text>
<text transform="matrix(1.0227 0 0 1 505.2983 255.3057)" class="st9 st11">NIR filter</text>
<text transform="matrix(1.0227 0 0 1 756.2983 198.3057)" class="st9 st11">CH2 Filter</text>
<text transform="matrix(1.0227 0 0 1 732.2983 347.3057)" class="st9 st11">CH1Filter</text>
<text transform="matrix(1.0227 0 0 1 837.2983 232.3057)" class="st9 st11">CH2 Detector </text>
<text transform="matrix(1.0227 0 0 1 721.2983 423.3057)" class="st9 st11">CH1 Detector</text>
<linearGradient id="SVGID_6_" gradientUnits="userSpaceOnUse" x1="664.5" y1="509.5" x2="726.5" y2="509.5">
	<stop  offset="0" style="stop-color:#FFFFFF"/>
	<stop  offset="1" style="stop-color:#000000"/>
</linearGradient>
<rect x="664.5" y="485.5" class="st16" width="62" height="48"/>
<text transform="matrix(1.0227 0 0 1 736.2983 503.3057)" class="st9 st11">CH1 PreAmp</text>
<text transform="matrix(1.0227 0 0 1 737.2983 520.3057)" class="st9 st11">CH1 PreAmpSettings</text>
<text transform="matrix(1.0227 0 0 1 835.2983 327.3057)" class="st17 st9 st11">CH2 PreAmp</text>
<text transform="matrix(1.0227 0 0 1 836.2983 344.3057)" class="st9 st11">CH2 PreAmpSettings</text>
<linearGradient id="SVGID_7_" gradientUnits="userSpaceOnUse" x1="943.5" y1="332.5" x2="1005.5" y2="332.5">
	<stop  offset="0" style="stop-color:#FFFFFF"/>
	<stop  offset="1" style="stop-color:#000000"/>
</linearGradient>
<rect x="943.5" y="308.5" class="st18" width="62" height="48"/>
<line class="st19" x1="119" y1="308" x2="120" y2="264"/>
<line class="st20" x1="794" y1="268" x2="119" y2="268"/>
<line class="st20" x1="694" y1="264" x2="693.5" y2="338.5"/>
<line class="st21" x1="933" y1="264" x2="976" y2="264"/>
<line class="st21" x1="978" y1="307" x2="978" y2="263"/>
<line class="st21" x1="695" y1="472" x2="696" y2="486"/>
<line class="st21" x1="973" y1="668" x2="977" y2="358"/>
<line class="st21" x1="697" y1="638" x2="697" y2="533"/>
<line class="st21" x1="595" y1="637" x2="699" y2="637"/>
<line class="st21" x1="596" y1="664" x2="975" y2="664"/>
<text transform="matrix(1.0227 0 0 1 359.2983 600.3057)" class="st9 st11">Software &amp; version</text>
<line class="st22" x1="519" y1="644" x2="465.5" y2="643.5"/>
<rect x="347" y="608" class="st12" width="118" height="85"/>
<linearGradient id="SVGID_8_" gradientUnits="userSpaceOnUse" x1="301" y1="85" x2="435" y2="85">
	<stop  offset="0" style="stop-color:#CCE0F4"/>
	<stop  offset="6.405089e-02" style="stop-color:#C3DCF2"/>
	<stop  offset="0.1706" style="stop-color:#A9D2EE"/>
	<stop  offset="0.3066" style="stop-color:#80C2E7"/>
	<stop  offset="0.4649" style="stop-color:#47ACDE"/>
	<stop  offset="0.5674" style="stop-color:#1E9CD7"/>
	<stop  offset="0.8652" style="stop-color:#0075BE"/>
	<stop  offset="0.9944" style="stop-color:#005B97"/>
</linearGradient>
<rect x="301.5" y="67.5" class="st23" width="133" height="35"/>
<rect x="519" y="614" class="st24" width="81" height="63"/>
<text transform="matrix(1.0227 0 0 1 528.2983 608.3057)" class="st9 st11">vDAQ system</text>
<text transform="matrix(1.0227 0 0 1 328.2983 61.3057)"><tspan x="0" y="0" class="st9 st11">Custom Optical </tspan><tspan x="0" y="14.1" class="st9 st11">Assembly: </tspan><tspan x="0" y="28.2" class="st9 st11">-remote focus, </tspan><tspan x="0" y="42.2" class="st9 st11">-Deformable mirror</tspan><tspan x="0" y="56.3" class="st9 st11">-...</tspan></text>
<text transform="matrix(1.0227 0 0 1 179.2983 75.3057)" class="st9 st11">Scanners</text>
</svg>
